<svg xmlns="http://www.w3.org/2000/svg" width="15" height="15" viewBox="0 0 15 15">
  <path id="sms_FILL0_wght400_GRAD0_opsz48" d="M8.238,10.694a.737.737,0,1,0-.534-.216A.726.726,0,0,0,8.238,10.694Zm3.319,0a.737.737,0,1,0-.534-.216A.726.726,0,0,0,11.556,10.694Zm3.188,0a.737.737,0,1,0-.534-.216A.726.726,0,0,0,14.744,10.694ZM4,19V5.125a1.09,1.09,0,0,1,.338-.778A1.065,1.065,0,0,1,5.125,4h12.75a1.076,1.076,0,0,1,.778.347A1.076,1.076,0,0,1,19,5.125v9.75A1.19,1.19,0,0,1,17.875,16H7Zm1.125-2.719,1.406-1.406H17.875V5.125H5.125Zm0-11.156v0Z" transform="translate(-4 -4)"/>
</svg>
