<svg xmlns="http://www.w3.org/2000/svg" width="34.299" height="20" viewBox="0 0 34.299 20">
  <path id="패스_66" data-name="패스 66" d="M9.127-37.224v-2.639A3.627,3.627,0,0,1,10.963-43,8.747,8.747,0,0,1,15.838-44.2a1.963,1.963,0,0,1,.337.021c.074.016.686.024.835.024-.328.6-1.1,1.229-1.305,1.9a6.96,6.96,0,0,0-.314,2.081v2.953Zm7.664,0v-2.865a4.352,4.352,0,0,1,2.551-3.958,14.377,14.377,0,0,1,6.934-1.411,14.367,14.367,0,0,1,6.958,1.411,4.355,4.355,0,0,1,2.528,3.958v2.865Zm20.371,0v-2.953a6.9,6.9,0,0,0-.314-2.1,7.771,7.771,0,0,0-.893-1.877,1.8,1.8,0,0,0,.311-.024,3.244,3.244,0,0,1,.449-.021A8.731,8.731,0,0,1,41.614-43a3.636,3.636,0,0,1,1.813,3.133v2.639Zm-21.324-8.9a3.017,3.017,0,0,1-2.214-.917,3.019,3.019,0,0,1-.917-2.216,3.088,3.088,0,0,1,.917-2.236,2.979,2.979,0,0,1,2.214-.941,3.1,3.1,0,0,1,2.238.917,2.986,2.986,0,0,1,.941,2.216,3.085,3.085,0,0,1-.919,2.236A3.031,3.031,0,0,1,15.838-46.128Zm20.877,0a3.024,3.024,0,0,1-2.216-.917,3.019,3.019,0,0,1-.917-2.216A3.088,3.088,0,0,1,34.5-51.5a2.936,2.936,0,0,1,2.171-.941,3.07,3.07,0,0,1,2.259.917,3.024,3.024,0,0,1,.917,2.216,3.127,3.127,0,0,1-.9,2.236A2.955,2.955,0,0,1,36.715-46.128ZM26.276-47.56a4.66,4.66,0,0,1-3.423-1.409,4.66,4.66,0,0,1-1.409-3.423,4.683,4.683,0,0,1,1.409-3.4,4.622,4.622,0,0,1,3.423-1.432,4.64,4.64,0,0,1,3.4,1.432,4.645,4.645,0,0,1,1.432,3.4,4.622,4.622,0,0,1-1.432,3.423A4.679,4.679,0,0,1,26.276-47.56Z" transform="translate(-9.127 57.224)"/>
</svg>
