<svg xmlns="http://www.w3.org/2000/svg" width="24.077" height="20" viewBox="0 0 24.077 20">
  <g id="sprint-sprint_grad200_symbol" transform="translate(-764.87 -677.098)">
    <path id="패스_44" data-name="패스 44" d="M20.457-45.934l-1.72-1.75,12.006-12.04h-3.47v1.975H24.789v-4.458h8.63a.63.63,0,0,1-.222-.049.514.514,0,0,1-.191-.112l6.274,6.243a5.032,5.032,0,0,0,1.735,1.147,4.743,4.743,0,0,0,1.8.286v2.484a7.927,7.927,0,0,1-2.738-.541,6.887,6.887,0,0,1-2.58-1.688l-2.42-2.293L32.019-53.7l3.057,3.057L26.891-45.9l-1.243-2.2L31-51.188l-2.611-2.643ZM38.61-61.092a2.283,2.283,0,0,1-1.7-.7,2.365,2.365,0,0,1-.685-1.72,2.312,2.312,0,0,1,.685-1.7,2.312,2.312,0,0,1,1.7-.685,2.288,2.288,0,0,1,1.7.7A2.368,2.368,0,0,1,41-63.482a2.314,2.314,0,0,1-.685,1.7A2.314,2.314,0,0,1,38.61-61.092Z" transform="translate(746.132 743)" fill="#25a855"/>
  </g>
</svg>
