<svg xmlns="http://www.w3.org/2000/svg" width="15.911" height="20" viewBox="0 0 15.911 20">
  <path id="패스_7705" data-name="패스 7705" d="M23.44-64.928a2,2,0,0,0,1.49-.616,2.035,2.035,0,0,0,.6-1.478,2,2,0,0,0-.616-1.49,2.035,2.035,0,0,0-1.478-.6,2,2,0,0,0-1.49.616,2.035,2.035,0,0,0-.6,1.478,2.006,2.006,0,0,0,.616,1.491A2.037,2.037,0,0,0,23.44-64.928Zm0,9.951a35.855,35.855,0,0,1-5.985-6.466,9.822,9.822,0,0,1-1.971-5.382,7.7,7.7,0,0,1,2.389-5.948,7.948,7.948,0,0,1,5.566-2.2,7.948,7.948,0,0,1,5.566,2.2A7.7,7.7,0,0,1,31.4-66.824a9.822,9.822,0,0,1-1.971,5.382A35.855,35.855,0,0,1,23.44-54.977Z" transform="translate(-15.485 74.977)" fill="#25a855"/>
</svg>
