<svg xmlns="http://www.w3.org/2000/svg" width="18.712" height="20" viewBox="0 0 18.712 20">
  <path id="패스_88" data-name="패스 88" d="M27.307-57.227a4.41,4.41,0,0,1-3.266-1.334,4.453,4.453,0,0,1-1.319-3.251,4.434,4.434,0,0,1,1.319-3.264,4.435,4.435,0,0,1,3.266-1.319,4.435,4.435,0,0,1,3.266,1.319,4.434,4.434,0,0,1,1.319,3.264,4.453,4.453,0,0,1-1.319,3.251A4.41,4.41,0,0,1,27.307-57.227ZM17.951-46.394V-49.66a2.779,2.779,0,0,1,.407-1.46,3.473,3.473,0,0,1,1.162-1.145,15.4,15.4,0,0,1,3.753-1.585,15.1,15.1,0,0,1,4.034-.55,15.17,15.17,0,0,1,4.019.55,15.338,15.338,0,0,1,3.768,1.585,3.164,3.164,0,0,1,1.162,1.13,2.857,2.857,0,0,1,.407,1.475v3.266Z" transform="translate(-17.951 66.394)"/>
</svg>
