<svg xmlns="http://www.w3.org/2000/svg" width="14.969" height="20" viewBox="0 0 14.969 20">
  <g id="notifications-notifications_grad200fill1_symbol" transform="translate(-625.895 -353.406)">
    <path id="패스_22" data-name="패스 22" d="M18.145-57.159v-1.973h1.239v-5.688a6.178,6.178,0,0,1,1.379-3.957,5.858,5.858,0,0,1,3.552-2.163v-1.34a1.274,1.274,0,0,1,.379-.936,1.274,1.274,0,0,1,.936-.379,1.274,1.274,0,0,1,.936.379,1.274,1.274,0,0,1,.379.936v1.34A5.881,5.881,0,0,1,30.5-68.791a6.165,6.165,0,0,1,1.379,3.97v5.688h1.239v1.973Zm7.485,3.565a1.856,1.856,0,0,1-1.365-.556,1.859,1.859,0,0,1-.556-1.365h3.842A1.859,1.859,0,0,1,27-54.15,1.856,1.856,0,0,1,25.63-53.594Z" transform="translate(607.75 427)"/>
  </g>
</svg>
